<mxfile host="Electron" modified="2024-06-16T09:45:36.501Z" agent="Mozilla/5.0 (Windows NT 10.0; Win64; x64) AppleWebKit/537.36 (KHTML, like Gecko) draw.io/24.5.1 Chrome/124.0.6367.207 Electron/30.0.6 Safari/537.36" etag="iI1CR-tznU7MX1w3lA4N" version="24.5.1" type="device">
  <diagram name="Page-1" id="bulp__Rcq_FycxIBvRFv">
    <mxGraphModel dx="1687" dy="993" grid="1" gridSize="10" guides="1" tooltips="1" connect="1" arrows="1" fold="1" page="1" pageScale="1" pageWidth="800" pageHeight="1000" math="0" shadow="0">
      <root>
        <mxCell id="0" />
        <mxCell id="1" parent="0" />
        <mxCell id="SInLfU6MMmjRNFHa1kLb-1" value="Actor" style="shape=umlActor;verticalLabelPosition=bottom;verticalAlign=top;html=1;outlineConnect=0;" vertex="1" parent="1">
          <mxGeometry x="130" y="830" width="30" height="60" as="geometry" />
        </mxCell>
        <mxCell id="SInLfU6MMmjRNFHa1kLb-2" value="Files Service" style="whiteSpace=wrap;html=1;aspect=fixed;" vertex="1" parent="1">
          <mxGeometry x="270" y="820" width="80" height="80" as="geometry" />
        </mxCell>
        <mxCell id="SInLfU6MMmjRNFHa1kLb-3" value="Files Meta" style="shape=cylinder3;whiteSpace=wrap;html=1;boundedLbl=1;backgroundOutline=1;size=15;" vertex="1" parent="1">
          <mxGeometry x="430" y="770" width="60" height="80" as="geometry" />
        </mxCell>
        <mxCell id="SInLfU6MMmjRNFHa1kLb-4" value="Fiels Objects" style="shape=cylinder3;whiteSpace=wrap;html=1;boundedLbl=1;backgroundOutline=1;size=15;" vertex="1" parent="1">
          <mxGeometry x="430" y="890" width="60" height="80" as="geometry" />
        </mxCell>
        <mxCell id="SInLfU6MMmjRNFHa1kLb-5" value="" style="outlineConnect=0;dashed=0;verticalLabelPosition=bottom;verticalAlign=top;align=center;html=1;shape=mxgraph.aws3.s3;fillColor=#E05243;gradientColor=none;" vertex="1" parent="1">
          <mxGeometry x="481" y="946" width="26.5" height="32.22" as="geometry" />
        </mxCell>
        <mxCell id="SInLfU6MMmjRNFHa1kLb-6" value="" style="image;aspect=fixed;html=1;points=[];align=center;fontSize=12;image=img/lib/azure2/databases/Azure_Database_PostgreSQL_Server.svg;" vertex="1" parent="1">
          <mxGeometry x="482.25" y="830" width="24" height="32" as="geometry" />
        </mxCell>
        <mxCell id="SInLfU6MMmjRNFHa1kLb-7" value="" style="endArrow=classic;html=1;rounded=0;entryX=0;entryY=0.5;entryDx=0;entryDy=0;" edge="1" parent="1" target="SInLfU6MMmjRNFHa1kLb-2">
          <mxGeometry width="50" height="50" relative="1" as="geometry">
            <mxPoint x="170" y="860" as="sourcePoint" />
            <mxPoint x="700" y="710" as="targetPoint" />
          </mxGeometry>
        </mxCell>
        <mxCell id="SInLfU6MMmjRNFHa1kLb-8" value="" style="endArrow=classic;html=1;rounded=0;exitX=1;exitY=0.5;exitDx=0;exitDy=0;entryX=0;entryY=0.5;entryDx=0;entryDy=0;entryPerimeter=0;" edge="1" parent="1" source="SInLfU6MMmjRNFHa1kLb-2" target="SInLfU6MMmjRNFHa1kLb-3">
          <mxGeometry width="50" height="50" relative="1" as="geometry">
            <mxPoint x="650" y="760" as="sourcePoint" />
            <mxPoint x="700" y="710" as="targetPoint" />
          </mxGeometry>
        </mxCell>
        <mxCell id="SInLfU6MMmjRNFHa1kLb-9" value="" style="endArrow=classic;html=1;rounded=0;entryX=0;entryY=0;entryDx=0;entryDy=52.5;entryPerimeter=0;" edge="1" parent="1" target="SInLfU6MMmjRNFHa1kLb-4">
          <mxGeometry width="50" height="50" relative="1" as="geometry">
            <mxPoint x="170" y="880" as="sourcePoint" />
            <mxPoint x="700" y="710" as="targetPoint" />
            <Array as="points">
              <mxPoint x="200" y="880" />
              <mxPoint x="200" y="943" />
            </Array>
          </mxGeometry>
        </mxCell>
        <mxCell id="SInLfU6MMmjRNFHa1kLb-10" value="" style="endArrow=classic;html=1;rounded=0;exitX=1;exitY=0.5;exitDx=0;exitDy=0;entryX=0;entryY=0.5;entryDx=0;entryDy=0;entryPerimeter=0;" edge="1" parent="1" source="SInLfU6MMmjRNFHa1kLb-2" target="SInLfU6MMmjRNFHa1kLb-4">
          <mxGeometry width="50" height="50" relative="1" as="geometry">
            <mxPoint x="650" y="760" as="sourcePoint" />
            <mxPoint x="700" y="710" as="targetPoint" />
          </mxGeometry>
        </mxCell>
        <mxCell id="SInLfU6MMmjRNFHa1kLb-11" value="" style="endArrow=none;dashed=1;html=1;dashPattern=1 3;strokeWidth=2;rounded=0;" edge="1" parent="1">
          <mxGeometry width="50" height="50" relative="1" as="geometry">
            <mxPoint y="690" as="sourcePoint" />
            <mxPoint x="780" y="690" as="targetPoint" />
          </mxGeometry>
        </mxCell>
        <mxCell id="SInLfU6MMmjRNFHa1kLb-12" value="API Design" style="text;html=1;align=center;verticalAlign=middle;whiteSpace=wrap;rounded=0;" vertex="1" parent="1">
          <mxGeometry x="20" y="300" width="130" height="30" as="geometry" />
        </mxCell>
        <mxCell id="SInLfU6MMmjRNFHa1kLb-13" value="System Design" style="text;html=1;align=center;verticalAlign=middle;whiteSpace=wrap;rounded=0;" vertex="1" parent="1">
          <mxGeometry x="40" y="720" width="130" height="30" as="geometry" />
        </mxCell>
        <mxCell id="SInLfU6MMmjRNFHa1kLb-14" value="getSignedUrl(fileHash, acess: READ / WRITE) {&lt;div&gt;&lt;span style=&quot;white-space: pre;&quot;&gt;&#x9;&lt;/span&gt;return signedUrl&lt;br&gt;&lt;/div&gt;&lt;div&gt;}&lt;/div&gt;&lt;div&gt;&lt;br&gt;&lt;/div&gt;&lt;div&gt;&lt;div&gt;&lt;span style=&quot;background-color: initial;&quot;&gt;createFileMeta(fileHash, fileType, description) {&lt;/span&gt;&lt;/div&gt;&lt;div&gt;&lt;span style=&quot;white-space: pre;&quot;&gt;&#x9;&lt;/span&gt;return fileMetaCreated&lt;br&gt;&lt;/div&gt;&lt;div&gt;}&lt;/div&gt;&lt;/div&gt;&lt;div&gt;&lt;br&gt;&lt;/div&gt;&lt;div&gt;&lt;div&gt;&lt;span style=&quot;background-color: initial;&quot;&gt;getFileMeta(fileHash)&amp;nbsp;&lt;/span&gt;&lt;/div&gt;&lt;/div&gt;&lt;div&gt;&lt;br&gt;&lt;/div&gt;&lt;div&gt;&lt;div&gt;&lt;span style=&quot;background-color: initial;&quot;&gt;deleteFile(fileHash)&lt;/span&gt;&lt;/div&gt;&lt;/div&gt;" style="text;html=1;align=left;verticalAlign=middle;whiteSpace=wrap;rounded=0;" vertex="1" parent="1">
          <mxGeometry x="54" y="334" width="440" height="246" as="geometry" />
        </mxCell>
        <mxCell id="SInLfU6MMmjRNFHa1kLb-16" value="" style="endArrow=none;dashed=1;html=1;dashPattern=1 3;strokeWidth=2;rounded=0;" edge="1" parent="1">
          <mxGeometry width="50" height="50" relative="1" as="geometry">
            <mxPoint y="260" as="sourcePoint" />
            <mxPoint x="780" y="260" as="targetPoint" />
          </mxGeometry>
        </mxCell>
        <mxCell id="SInLfU6MMmjRNFHa1kLb-17" value="Assumption" style="text;html=1;align=center;verticalAlign=middle;whiteSpace=wrap;rounded=0;" vertex="1" parent="1">
          <mxGeometry x="30" y="10" width="130" height="30" as="geometry" />
        </mxCell>
        <mxCell id="SInLfU6MMmjRNFHa1kLb-18" value="&lt;ul&gt;&lt;li&gt;user can upload files from client to blob using signed url&lt;/li&gt;&lt;/ul&gt;" style="text;html=1;align=left;verticalAlign=middle;whiteSpace=wrap;rounded=0;" vertex="1" parent="1">
          <mxGeometry x="30" y="47" width="370" height="30" as="geometry" />
        </mxCell>
        <mxCell id="SInLfU6MMmjRNFHa1kLb-19" value="Gracefull error handling" style="text;html=1;align=center;verticalAlign=middle;whiteSpace=wrap;rounded=0;" vertex="1" parent="1">
          <mxGeometry x="30" y="120" width="180" height="30" as="geometry" />
        </mxCell>
        <mxCell id="SInLfU6MMmjRNFHa1kLb-20" value="&lt;ul&gt;&lt;li&gt;when updating metadata - check if file exist in the bucket in order to avoid corrupted data (if files does not exists - don&#39;t write meta&lt;/li&gt;&lt;li&gt;files meta will be updated once file is uploaded to the bucket&lt;/li&gt;&lt;/ul&gt;" style="text;html=1;align=left;verticalAlign=middle;whiteSpace=wrap;rounded=0;" vertex="1" parent="1">
          <mxGeometry x="30" y="150" width="580" height="30" as="geometry" />
        </mxCell>
        <mxCell id="SInLfU6MMmjRNFHa1kLb-21" value="&lt;div&gt;*Additional data such as userId, created at atc can be saved in the db&lt;/div&gt;" style="text;html=1;align=left;verticalAlign=middle;whiteSpace=wrap;rounded=0;" vertex="1" parent="1">
          <mxGeometry x="330" y="427" width="440" height="30" as="geometry" />
        </mxCell>
        <mxCell id="SInLfU6MMmjRNFHa1kLb-24" value="&lt;div&gt;*Used for allowing users to upload files directly to the bucket&lt;/div&gt;" style="text;html=1;align=left;verticalAlign=middle;whiteSpace=wrap;rounded=0;" vertex="1" parent="1">
          <mxGeometry x="330" y="370" width="440" height="30" as="geometry" />
        </mxCell>
      </root>
    </mxGraphModel>
  </diagram>
</mxfile>
